<svg xmlns="http://www.w3.org/2000/svg" width="13" height="13" viewBox="0 0 13 13">
    <g fill="none" fill-rule="evenodd">
        <path fill="#FFF" d="M0 0H1440V2647H0z" transform="translate(-215 -1708)"/>
        <g fill="#000" fill-rule="nonzero" opacity=".35">
            <path d="M11.6 0H6.668c-.101 0-.198.04-.27.112L.41 6.1c-.545.546-.545 1.434 0 1.98l4.512 4.511c.263.264.615.409.99.409.374 0 .725-.145.989-.409l5.988-5.988c.072-.072.112-.169.112-.27V1.4C13 .628 12.372 0 11.6 0zm.638 6.176l-5.877 5.877c-.12.12-.28.185-.45.185-.172 0-.332-.066-.451-.185L.948 7.54c-.249-.249-.249-.654 0-.902L6.825.762H11.6c.351 0 .637.286.637.637v4.777z" transform="translate(-215 -1708) translate(215 1708)"/>
            <path d="M10 2c-.267 0-.518.104-.707.293C9.104 2.482 9 2.733 9 3c0 .267.104.518.293.707.189.189.44.293.707.293.267 0 .518-.104.707-.293.189-.189.293-.44.293-.707 0-.267-.104-.518-.293-.707C10.518 2.104 10.267 2 10 2zm.257 1.257c-.069.069-.16.107-.257.107s-.188-.038-.257-.107-.106-.16-.106-.257.037-.188.106-.257.16-.107.257-.107.188.038.257.107.107.16.107.257-.038.188-.107.257z" transform="translate(-215 -1708) translate(215 1708)"/>
        </g>
    </g>
</svg>
