<svg xmlns="http://www.w3.org/2000/svg" width="25" height="25" viewBox="0 0 25 25"><g fill="none" fill-rule="evenodd"><path fill="#FFF" d="M0 0H1440V3279H0z" transform="translate(-1154 -39)"/><path fill="#000" fill-rule="nonzero" d="M1175.339 42.661c-2.361-2.36-5.5-3.661-8.839-3.661-3.339 0-6.478 1.3-8.839 3.661-2.36 2.361-3.661 5.5-3.661 8.839 0 3.339 1.3 6.478 3.661 8.839 2.361 2.36 5.5 3.661 8.839 3.661 3.339 0 6.478-1.3 8.839-3.661 2.36-2.361 3.661-5.5 3.661-8.839 0-3.339-1.3-6.478-3.661-8.839zm-15.072 17.94c.522-3.01 3.13-5.23 6.233-5.23 3.102 0 5.71 2.22 6.233 5.23-1.774 1.22-3.922 1.934-6.233 1.934-2.311 0-4.459-.715-6.233-1.934zm2.258-10.67c0-2.192 1.783-3.975 3.975-3.975s3.975 1.783 3.975 3.975-1.783 3.975-3.975 3.975-3.975-1.783-3.975-3.975zm11.477 9.654c-.394-1.401-1.177-2.673-2.275-3.666-.673-.61-1.44-1.09-2.263-1.43 1.49-.97 2.476-2.651 2.476-4.558 0-3-2.44-5.44-5.44-5.44-3 0-5.44 2.44-5.44 5.44 0 1.907.987 3.587 2.476 4.559-.824.339-1.59.82-2.263 1.429-1.098.993-1.88 2.264-2.275 3.666-2.172-2.017-3.533-4.895-3.533-8.085 0-6.085 4.95-11.035 11.035-11.035s11.035 4.95 11.035 11.035c0 3.19-1.361 6.068-3.533 8.085z" opacity=".347" transform="translate(-1154 -39)"/></g></svg>