<svg xmlns="http://www.w3.org/2000/svg" width="25" height="25" viewBox="0 0 25 25"><g fill="none" fill-rule="evenodd"><path fill="#FFF" d="M0 0H1440V3279H0z" transform="translate(-1209 -39)"/><g fill="#000" fill-rule="nonzero" opacity=".347"><path d="M12.5 6.522c-3.296 0-5.978 2.682-5.978 5.978s2.682 5.978 5.978 5.978 5.978-2.682 5.978-5.978-2.682-5.978-5.978-5.978zm0 10.462c-2.472 0-4.484-2.012-4.484-4.484s2.012-4.484 4.484-4.484 4.484 2.012 4.484 4.484-2.012 4.484-4.484 4.484z" transform="translate(-1209 -39) translate(1209 39)"/><path d="M24.412 9.653l-1.922-.417c-.167-.512-.374-1.01-.618-1.491l1.064-1.655c.19-.296.148-.684-.1-.932l-2.994-2.994c-.248-.248-.636-.29-.932-.1l-1.655 1.064c-.48-.244-.98-.451-1.49-.618L15.346.588c-.075-.343-.38-.588-.73-.588h-4.234c-.35 0-.655.245-.73.588L9.236 2.51c-.512.167-1.01.374-1.491.618L6.09 2.064c-.296-.19-.684-.148-.932.1L2.164 5.158c-.248.248-.29.636-.1.932l1.064 1.655c-.244.48-.451.98-.618 1.49l-1.922.418c-.343.075-.588.38-.588.73v4.234c0 .35.245.655.588.73l1.922.417c.167.512.374 1.01.618 1.491L2.064 18.91c-.19.296-.148.684.1.932l2.994 2.994c.248.248.636.29.932.1l1.655-1.064c.48.244.98.451 1.49.618l.418 1.922c.075.343.38.588.73.588h4.234c.35 0 .655-.245.73-.588l.417-1.922c.512-.167 1.01-.374 1.491-.618l1.655 1.064c.296.19.684.148.932-.1l2.994-2.994c.248-.248.29-.636.1-.932l-1.064-1.655c.244-.48.451-.98.618-1.49l1.922-.418c.343-.075.588-.38.588-.73v-4.234c0-.35-.245-.655-.588-.73zm-.906 4.361l-1.762.383c-.27.06-.486.263-.56.53-.194.694-.473 1.366-.828 1.996-.137.241-.128.538.022.77l.975 1.518-2.141 2.142-1.518-.975c-.233-.15-.53-.159-.771-.022-.63.355-1.302.634-1.996.827-.267.075-.47.29-.53.561l-.383 1.762h-3.028l-.383-1.762c-.06-.27-.263-.486-.53-.56-.694-.194-1.366-.473-1.996-.828-.241-.137-.538-.128-.77.022l-1.518.975-2.142-2.142.975-1.517c.15-.233.159-.53.023-.771-.356-.63-.634-1.302-.828-1.996-.075-.267-.29-.47-.561-.53l-1.762-.383v-3.028l1.762-.383c.27-.06.486-.263.56-.53.194-.694.473-1.366.828-1.996.137-.241.128-.538-.022-.77l-.975-1.518 2.141-2.142 1.518.975c.233.15.53.159.771.022.63-.355 1.302-.634 1.996-.827.267-.075.47-.29.53-.561l.383-1.762h3.028l.383 1.762c.06.27.263.486.53.56.694.194 1.366.473 1.996.828.241.137.538.128.77-.022l1.518-.975 2.142 2.142-.975 1.517c-.15.233-.159.53-.023.771.356.63.634 1.302.828 1.996.075.267.29.47.561.53l1.762.383v3.028z" transform="translate(-1209 -39) translate(1209 39)"/></g></g></svg>